<svg xmlns="http://www.w3.org/2000/svg" width="1100" height="520" viewBox="0 0 1100 520" role="img" aria-labelledby="title desc">
  <title id="title">CyberStorm asset pipeline</title>
  <desc id="desc">A pipeline diagram showing source-of-truth visuals, sectors, and music flowing through the build into generated includes, a banked map payload, and final runtime modules.</desc>
  <defs>
    <style>
      .title { font: 700 28px 'Segoe UI', Arial, sans-serif; fill: #0f172a; }
      .subtitle { font: 400 15px 'Segoe UI', Arial, sans-serif; fill: #334155; }
      .label { font: 700 16px 'Segoe UI', Arial, sans-serif; fill: #e2e8f0; }
      .body { font: 400 13px 'Segoe UI', Arial, sans-serif; fill: #cbd5e1; }
      .note { font: 400 13px 'Segoe UI', Arial, sans-serif; fill: #475569; }
      .chip { font: 700 12px 'Segoe UI', Arial, sans-serif; fill: #082f49; }
    </style>
    <marker id="arrow" markerWidth="12" markerHeight="12" refX="10" refY="6" orient="auto">
      <path d="M0,0 L12,6 L0,12 Z" fill="#22d3ee"/>
    </marker>
  </defs>

  <text x="40" y="42" class="title">How Assets Become Assembly</text>
  <text x="40" y="68" class="subtitle">scripts/build.ps1 generates reviewable assembly include files and one banked map payload from readable source files.</text>

  <rect x="390" y="92" width="320" height="56" rx="16" fill="#0f172a" stroke="#38bdf8" stroke-width="2"/>
  <text x="414" y="126" class="label">scripts/build.ps1</text>
  <text x="540" y="126" class="body">tooling hub</text>

  <rect x="40" y="190" width="220" height="88" rx="16" fill="#0f172a" stroke="#22d3ee" stroke-width="2"/>
  <text x="62" y="222" class="label">assets/visuals.psd1</text>
  <text x="62" y="246" class="body">35 bitmaps defined as</text>
  <text x="62" y="266" class="body">palette-keyed pixel rows</text>

  <rect x="40" y="314" width="220" height="88" rx="16" fill="#0f172a" stroke="#f59e0b" stroke-width="2"/>
  <text x="62" y="346" class="label">assets/sectors.psd1</text>
  <text x="62" y="370" class="body">3 sectors, 9 maps,</text>
  <text x="62" y="390" class="body">rule tables and intro text</text>

  <rect x="40" y="438" width="220" height="52" rx="16" fill="#0f172a" stroke="#22c55e" stroke-width="2"/>
  <text x="62" y="470" class="label">assets/music.psd1</text>

  <rect x="330" y="190" width="270" height="88" rx="16" fill="#0f172a" stroke="#22d3ee" stroke-width="2"/>
  <text x="352" y="222" class="label">build/generated_art.inc</text>
  <text x="352" y="246" class="body">validated MASM data for</text>
  <text x="352" y="266" class="body">sprites and tiles</text>

  <rect x="330" y="302" width="270" height="112" rx="16" fill="#0f172a" stroke="#f59e0b" stroke-width="2"/>
  <text x="352" y="332" class="label">Generated content + bank</text>
  <text x="352" y="356" class="body">generated_sector_content.inc</text>
  <text x="352" y="376" class="body">generated_maps.inc</text>
  <text x="352" y="396" class="body">generated_bank_layout.inc</text>
  <text x="352" y="416" class="body">cyberstorm-map-bank.bin</text>

  <rect x="330" y="438" width="270" height="52" rx="16" fill="#0f172a" stroke="#22c55e" stroke-width="2"/>
  <text x="352" y="470" class="label">build/generated_music.inc</text>

  <rect x="670" y="190" width="200" height="88" rx="16" fill="#0f172a" stroke="#22d3ee" stroke-width="2"/>
  <text x="692" y="222" class="label">src/game/art.asm</text>
  <text x="692" y="246" class="body">includes generated art</text>
  <text x="692" y="266" class="body">plus palette/font data</text>

  <rect x="670" y="302" width="200" height="112" rx="16" fill="#0f172a" stroke="#f59e0b" stroke-width="2"/>
  <text x="692" y="332" class="label">Runtime consumers</text>
  <text x="692" y="356" class="body">state.asm</text>
  <text x="692" y="376" class="body">gameplay.asm</text>
  <text x="692" y="396" class="body">banks.asm</text>
  <text x="692" y="416" class="body">banked maps at 7000:0000</text>

  <rect x="670" y="438" width="200" height="52" rx="16" fill="#0f172a" stroke="#22c55e" stroke-width="2"/>
  <text x="692" y="470" class="label">src/game/audio.asm</text>

  <rect x="910" y="252" width="150" height="120" rx="18" fill="#0f172a" stroke="#38bdf8" stroke-width="2"/>
  <text x="932" y="286" class="label">cyberstorm</text>
  <text x="932" y="306" class="label">.img / .vfd</text>
  <text x="932" y="334" class="body">stage two +</text>
  <text x="932" y="354" class="body">map bank on disk</text>

  <line x1="260" y1="234" x2="330" y2="234" stroke="#22d3ee" stroke-width="4" marker-end="url(#arrow)"/>
  <line x1="260" y1="358" x2="330" y2="358" stroke="#22d3ee" stroke-width="4" marker-end="url(#arrow)"/>
  <line x1="260" y1="464" x2="330" y2="464" stroke="#22d3ee" stroke-width="4" marker-end="url(#arrow)"/>

  <line x1="600" y1="234" x2="670" y2="234" stroke="#22d3ee" stroke-width="4" marker-end="url(#arrow)"/>
  <line x1="600" y1="358" x2="670" y2="358" stroke="#22d3ee" stroke-width="4" marker-end="url(#arrow)"/>
  <line x1="600" y1="464" x2="670" y2="464" stroke="#22d3ee" stroke-width="4" marker-end="url(#arrow)"/>

  <line x1="870" y1="356" x2="910" y2="312" stroke="#22d3ee" stroke-width="4" marker-end="url(#arrow)"/>
  <line x1="770" y1="148" x2="770" y2="176" stroke="#22d3ee" stroke-width="4"/>
  <line x1="500" y1="148" x2="500" y2="176" stroke="#22d3ee" stroke-width="4"/>
  <line x1="150" y1="148" x2="150" y2="176" stroke="#22d3ee" stroke-width="0"/>
  <line x1="150" y1="148" x2="500" y2="148" stroke="#22d3ee" stroke-width="4"/>
  <line x1="150" y1="148" x2="150" y2="190" stroke="#22d3ee" stroke-width="4"/>
  <line x1="150" y1="148" x2="150" y2="314" stroke="#22d3ee" stroke-width="4"/>
  <line x1="150" y1="148" x2="150" y2="438" stroke="#22d3ee" stroke-width="4"/>

  <rect x="390" y="22" width="140" height="30" rx="15" fill="#cffafe"/>
  <text x="412" y="42" class="chip">validated inputs</text>
  <rect x="548" y="22" width="166" height="30" rx="15" fill="#fef3c7"/>
  <text x="570" y="42" class="chip">generated outputs</text>

  <text x="40" y="512" class="note">What this shows: readable source files become generated includes and a bank payload before MASM runs, so art and gameplay content scale without hand-editing large assembly tables.</text>
</svg>
