<svg xmlns="http://www.w3.org/2000/svg" width="1060" height="560" viewBox="0 0 1060 560" role="img" aria-labelledby="title desc">
  <title id="title">CyberStorm runtime modules</title>
  <desc id="desc">A module map showing game.asm as the composition root, the system and gameplay modules around the main loop, and the render stack that draws into the shared backbuffer before presenting through VGA or enhanced VBE.</desc>
  <defs>
    <style>
      .title { font: 700 28px 'Segoe UI', Arial, sans-serif; fill: #0f172a; }
      .subtitle { font: 400 15px 'Segoe UI', Arial, sans-serif; fill: #334155; }
      .label { font: 700 16px 'Segoe UI', Arial, sans-serif; fill: #e2e8f0; }
      .body { font: 400 13px 'Segoe UI', Arial, sans-serif; fill: #cbd5e1; }
      .note { font: 400 13px 'Segoe UI', Arial, sans-serif; fill: #475569; }
      .mono { font: 700 13px 'Consolas', 'Courier New', monospace; fill: #0f172a; }
    </style>
    <marker id="arrow" markerWidth="12" markerHeight="12" refX="10" refY="6" orient="auto">
      <path d="M0,0 L12,6 L0,12 Z" fill="#22d3ee"/>
    </marker>
  </defs>

  <text x="40" y="42" class="title">CyberStorm Runtime Modules</text>
  <text x="40" y="68" class="subtitle">src/game.asm is the stage-two composition root loaded at 1000:0000 and entered at byte 0.</text>

  <rect x="360" y="96" width="340" height="68" rx="18" fill="#0f172a" stroke="#38bdf8" stroke-width="2"/>
  <text x="386" y="126" class="label">src/game.asm</text>
  <text x="386" y="148" class="body">org 0, jmp start, then includes the runtime modules below</text>

  <rect x="60" y="214" width="260" height="180" rx="18" fill="#0f172a" stroke="#22d3ee" stroke-width="2"/>
  <text x="84" y="246" class="label">System + cross-cutting modules</text>
  <text x="84" y="272" class="body">constants.inc</text>
  <text x="84" y="292" class="body">debug_config.inc</text>
  <text x="84" y="312" class="body">generated_machine_code.inc</text>
  <text x="84" y="332" class="body">input.asm</text>
  <text x="84" y="352" class="body">machine_kernels.asm</text>
  <text x="84" y="372" class="body">audio.asm + feedback.asm</text>

  <rect x="400" y="214" width="260" height="180" rx="18" fill="#0f172a" stroke="#f59e0b" stroke-width="2"/>
  <text x="424" y="246" class="label">Core game loop</text>
  <text x="424" y="272" class="body">main.asm</text>
  <text x="424" y="292" class="body">- waits for BIOS tick</text>
  <text x="424" y="312" class="body">- renders current frame</text>
  <text x="424" y="332" class="body">- consumes input for the active state</text>
  <text x="424" y="356" class="body">gameplay.asm + state.asm</text>
  <text x="424" y="376" class="body">- sectors, hunters, spoof terminals, score</text>

  <rect x="740" y="214" width="260" height="180" rx="18" fill="#0f172a" stroke="#22c55e" stroke-width="2"/>
  <text x="764" y="246" class="label">Render stack</text>
  <text x="764" y="272" class="body">framebuffer.asm + primitives.asm</text>
  <text x="764" y="292" class="body">palette.asm + text.asm + sprites.asm</text>
  <text x="764" y="312" class="body">scenes.asm + hud.asm</text>
  <text x="764" y="332" class="body">tiles.asm + entities.asm + effects.asm</text>
  <text x="764" y="356" class="body">Draws into 9000:0000 + 8600:0000, then</text>
  <text x="764" y="376" class="body">presents via VGA or enhanced VBE</text>

  <rect x="240" y="434" width="240" height="72" rx="18" fill="#0f172a" stroke="#38bdf8" stroke-width="2"/>
  <text x="264" y="466" class="label">Data + generated content</text>
  <text x="264" y="488" class="body">state.asm, generated sector tables, banked maps</text>

  <rect x="560" y="434" width="240" height="72" rx="18" fill="#0f172a" stroke="#38bdf8" stroke-width="2"/>
  <text x="584" y="466" class="label">Visual + music data</text>
  <text x="584" y="488" class="body">art.asm, generated_art.inc, generated_music.inc</text>

  <rect x="820" y="438" width="180" height="64" rx="18" fill="#f8fafc" stroke="#cbd5e1" stroke-width="2"/>
  <text x="844" y="468" class="mono">Outputs</text>
  <text x="844" y="490" class="note">Video frame + PC speaker</text>

  <line x1="530" y1="164" x2="190" y2="214" stroke="#22d3ee" stroke-width="4" marker-end="url(#arrow)"/>
  <line x1="530" y1="164" x2="530" y2="214" stroke="#22d3ee" stroke-width="4" marker-end="url(#arrow)"/>
  <line x1="530" y1="164" x2="870" y2="214" stroke="#22d3ee" stroke-width="4" marker-end="url(#arrow)"/>

  <line x1="320" y1="304" x2="400" y2="304" stroke="#22d3ee" stroke-width="4" marker-end="url(#arrow)"/>
  <line x1="660" y1="304" x2="740" y2="304" stroke="#22d3ee" stroke-width="4" marker-end="url(#arrow)"/>
  <line x1="530" y1="394" x2="530" y2="434" stroke="#22d3ee" stroke-width="4" marker-end="url(#arrow)"/>
  <line x1="870" y1="394" x2="910" y2="438" stroke="#22d3ee" stroke-width="4" marker-end="url(#arrow)"/>

  <text x="40" y="536" class="note">What this shows: the project is still a flat stage-two binary, but it is organized as a small engine with clear system, gameplay, render, and data boundaries.</text>
</svg>
